<mxfile>
    <diagram id="WvNG18gvUI0Hv5ShNHLC" name="Page-1">
        <mxGraphModel dx="1049" dy="1129" grid="1" gridSize="10" guides="1" tooltips="1" connect="1" arrows="1" fold="1" page="1" pageScale="1" pageWidth="850" pageHeight="1100" math="0" shadow="0">
            <root>
                <mxCell id="0"/>
                <mxCell id="1" parent="0"/>
                <mxCell id="61" value="" style="ellipse;whiteSpace=wrap;html=1;strokeColor=#B09500;fontColor=#ffffff;fillColor=none;dashed=1;dashPattern=1 2;strokeWidth=3;" parent="1" vertex="1">
                    <mxGeometry x="210" y="300" width="450" height="470" as="geometry"/>
                </mxCell>
                <mxCell id="3" value="Contact Us Form" style="rounded=0;whiteSpace=wrap;html=1;" parent="1" vertex="1">
                    <mxGeometry x="365" y="200" width="120" height="60" as="geometry"/>
                </mxCell>
                <mxCell id="4" value="Database" style="shape=cylinder3;whiteSpace=wrap;html=1;boundedLbl=1;backgroundOutline=1;size=15;" parent="1" vertex="1">
                    <mxGeometry x="395" y="460" width="60" height="80" as="geometry"/>
                </mxCell>
                <mxCell id="5" value="Submit contact information and message" style="ellipse;whiteSpace=wrap;html=1;" parent="1" vertex="1">
                    <mxGeometry x="365" y="320" width="120" height="80" as="geometry"/>
                </mxCell>
                <mxCell id="6" value="Home Page" style="rounded=0;whiteSpace=wrap;html=1;" parent="1" vertex="1">
                    <mxGeometry x="580" y="260" width="120" height="60" as="geometry"/>
                </mxCell>
                <mxCell id="7" value="Resume Page" style="rounded=0;whiteSpace=wrap;html=1;" parent="1" vertex="1">
                    <mxGeometry x="680" y="380" width="120" height="60" as="geometry"/>
                </mxCell>
                <mxCell id="8" value="Portfolio Page" style="rounded=0;whiteSpace=wrap;html=1;" parent="1" vertex="1">
                    <mxGeometry x="680" y="540" width="120" height="60" as="geometry"/>
                </mxCell>
                <mxCell id="9" value="Login Page" style="rounded=0;whiteSpace=wrap;html=1;" parent="1" vertex="1">
                    <mxGeometry x="100" y="290" width="120" height="60" as="geometry"/>
                </mxCell>
                <mxCell id="10" value="Manage Contact Form Entries Page" style="rounded=0;whiteSpace=wrap;html=1;" parent="1" vertex="1">
                    <mxGeometry x="70" y="510" width="120" height="60" as="geometry"/>
                </mxCell>
                <mxCell id="11" value="Manage Users Page" style="rounded=0;whiteSpace=wrap;html=1;" parent="1" vertex="1">
                    <mxGeometry x="90" y="620" width="120" height="60" as="geometry"/>
                </mxCell>
                <mxCell id="12" value="Log in" style="ellipse;whiteSpace=wrap;html=1;" parent="1" vertex="1">
                    <mxGeometry x="240" y="400" width="120" height="80" as="geometry"/>
                </mxCell>
                <mxCell id="13" value="Admin Page" style="rounded=0;whiteSpace=wrap;html=1;" parent="1" vertex="1">
                    <mxGeometry x="70" y="400" width="120" height="60" as="geometry"/>
                </mxCell>
                <mxCell id="14" value="CRUD User" style="ellipse;whiteSpace=wrap;html=1;" parent="1" vertex="1">
                    <mxGeometry x="280" y="600" width="120" height="80" as="geometry"/>
                </mxCell>
                <mxCell id="15" value="View&amp;nbsp; Entries" style="ellipse;whiteSpace=wrap;html=1;" parent="1" vertex="1">
                    <mxGeometry x="240" y="500" width="120" height="80" as="geometry"/>
                </mxCell>
                <mxCell id="16" value="" style="endArrow=classic;html=1;exitX=0.5;exitY=1;exitDx=0;exitDy=0;entryX=0.5;entryY=0;entryDx=0;entryDy=0;" parent="1" source="3" target="5" edge="1">
                    <mxGeometry width="50" height="50" relative="1" as="geometry">
                        <mxPoint x="430" y="500" as="sourcePoint"/>
                        <mxPoint x="480" y="450" as="targetPoint"/>
                    </mxGeometry>
                </mxCell>
                <mxCell id="17" value="" style="endArrow=classic;html=1;exitX=0.5;exitY=1;exitDx=0;exitDy=0;entryX=0.5;entryY=0;entryDx=0;entryDy=0;entryPerimeter=0;" parent="1" source="5" target="4" edge="1">
                    <mxGeometry width="50" height="50" relative="1" as="geometry">
                        <mxPoint x="410" y="480" as="sourcePoint"/>
                        <mxPoint x="460" y="430" as="targetPoint"/>
                    </mxGeometry>
                </mxCell>
                <mxCell id="18" value="View Resume &lt;br&gt;Entries" style="ellipse;whiteSpace=wrap;html=1;dashed=1;" parent="1" vertex="1">
                    <mxGeometry x="500" y="380" width="120" height="80" as="geometry"/>
                </mxCell>
                <mxCell id="19" value="" style="endArrow=classic;html=1;entryX=0;entryY=0.5;entryDx=0;entryDy=0;exitX=1;exitY=0.5;exitDx=0;exitDy=0;" parent="1" source="18" target="7" edge="1">
                    <mxGeometry width="50" height="50" relative="1" as="geometry">
                        <mxPoint x="430" y="510" as="sourcePoint"/>
                        <mxPoint x="480" y="460" as="targetPoint"/>
                    </mxGeometry>
                </mxCell>
                <mxCell id="20" value="View Portfolio &lt;br&gt;Entries" style="ellipse;whiteSpace=wrap;html=1;dashed=1;" parent="1" vertex="1">
                    <mxGeometry x="500" y="490" width="120" height="80" as="geometry"/>
                </mxCell>
                <mxCell id="21" value="" style="endArrow=classic;html=1;entryX=0;entryY=0.5;entryDx=0;entryDy=0;exitX=1;exitY=1;exitDx=0;exitDy=0;" parent="1" source="20" target="8" edge="1">
                    <mxGeometry width="50" height="50" relative="1" as="geometry">
                        <mxPoint x="630" y="510" as="sourcePoint"/>
                        <mxPoint x="670" y="510" as="targetPoint"/>
                    </mxGeometry>
                </mxCell>
                <mxCell id="22" value="" style="endArrow=classic;html=1;exitX=1;exitY=1;exitDx=0;exitDy=0;entryX=0;entryY=0;entryDx=0;entryDy=0;" parent="1" source="9" target="12" edge="1">
                    <mxGeometry width="50" height="50" relative="1" as="geometry">
                        <mxPoint x="435" y="270" as="sourcePoint"/>
                        <mxPoint x="435" y="330" as="targetPoint"/>
                    </mxGeometry>
                </mxCell>
                <mxCell id="23" value="" style="endArrow=classic;html=1;exitX=0;exitY=0;exitDx=0;exitDy=15;entryX=1;entryY=1;entryDx=0;entryDy=0;exitPerimeter=0;" parent="1" source="4" target="12" edge="1">
                    <mxGeometry width="50" height="50" relative="1" as="geometry">
                        <mxPoint x="250" y="360" as="sourcePoint"/>
                        <mxPoint x="267.57359312880715" y="421.7157287525381" as="targetPoint"/>
                    </mxGeometry>
                </mxCell>
                <mxCell id="25" value="CRUD Resume &lt;br&gt;Entry" style="ellipse;whiteSpace=wrap;html=1;dashed=1;" parent="1" vertex="1">
                    <mxGeometry x="485" y="600" width="120" height="80" as="geometry"/>
                </mxCell>
                <mxCell id="26" value="CRUD Portfolio&amp;nbsp;&lt;br&gt;Entry" style="ellipse;whiteSpace=wrap;html=1;dashed=1;" parent="1" vertex="1">
                    <mxGeometry x="390" y="670" width="120" height="80" as="geometry"/>
                </mxCell>
                <mxCell id="28" value="Manage Portfolio Page" style="rounded=0;whiteSpace=wrap;html=1;dashed=1;" parent="1" vertex="1">
                    <mxGeometry x="395" y="790" width="120" height="60" as="geometry"/>
                </mxCell>
                <mxCell id="29" value="Manage Resume Page" style="rounded=0;whiteSpace=wrap;html=1;dashed=1;" parent="1" vertex="1">
                    <mxGeometry x="630" y="660" width="120" height="60" as="geometry"/>
                </mxCell>
                <mxCell id="35" value="" style="endArrow=classic;html=1;entryX=1;entryY=0.5;entryDx=0;entryDy=0;exitX=0;exitY=0.5;exitDx=0;exitDy=0;" parent="1" source="15" target="10" edge="1">
                    <mxGeometry width="50" height="50" relative="1" as="geometry">
                        <mxPoint x="430" y="480" as="sourcePoint"/>
                        <mxPoint x="480" y="430" as="targetPoint"/>
                    </mxGeometry>
                </mxCell>
                <mxCell id="36" value="" style="endArrow=classic;html=1;entryX=1;entryY=0.5;entryDx=0;entryDy=0;exitX=0;exitY=1;exitDx=0;exitDy=-15;exitPerimeter=0;" parent="1" source="4" target="15" edge="1">
                    <mxGeometry width="50" height="50" relative="1" as="geometry">
                        <mxPoint x="249.99999999999977" y="549.9999999999998" as="sourcePoint"/>
                        <mxPoint x="200" y="549.9999999999998" as="targetPoint"/>
                    </mxGeometry>
                </mxCell>
                <mxCell id="43" value="" style="endArrow=classic;html=1;entryX=1;entryY=0.5;entryDx=0;entryDy=0;exitX=0;exitY=0.5;exitDx=0;exitDy=0;entryPerimeter=0;" parent="1" source="20" target="4" edge="1">
                    <mxGeometry width="50" height="50" relative="1" as="geometry">
                        <mxPoint x="512.573593128807" y="621.7157287525381" as="sourcePoint"/>
                        <mxPoint x="456.29999999999995" y="545.6499999999999" as="targetPoint"/>
                    </mxGeometry>
                </mxCell>
                <mxCell id="44" value="" style="endArrow=classic;html=1;exitX=1;exitY=0;exitDx=0;exitDy=15;exitPerimeter=0;" parent="1" source="4" edge="1">
                    <mxGeometry width="50" height="50" relative="1" as="geometry">
                        <mxPoint x="509.9999999999998" y="539.9999999999998" as="sourcePoint"/>
                        <mxPoint x="518" y="448" as="targetPoint"/>
                    </mxGeometry>
                </mxCell>
                <mxCell id="45" value="" style="endArrow=classic;startArrow=classic;html=1;entryX=0.5;entryY=1;entryDx=0;entryDy=0;entryPerimeter=0;exitX=0.5;exitY=0;exitDx=0;exitDy=0;" parent="1" source="26" target="4" edge="1">
                    <mxGeometry width="50" height="50" relative="1" as="geometry">
                        <mxPoint x="300" y="780" as="sourcePoint"/>
                        <mxPoint x="350" y="730" as="targetPoint"/>
                    </mxGeometry>
                </mxCell>
                <mxCell id="46" value="" style="endArrow=classic;startArrow=classic;html=1;entryX=0.855;entryY=1;entryDx=0;entryDy=-4.35;entryPerimeter=0;exitX=0;exitY=0;exitDx=0;exitDy=0;" parent="1" source="25" target="4" edge="1">
                    <mxGeometry width="50" height="50" relative="1" as="geometry">
                        <mxPoint x="459.9999999999998" y="679.9999999999998" as="sourcePoint"/>
                        <mxPoint x="434.9999999999998" y="549.9999999999998" as="targetPoint"/>
                    </mxGeometry>
                </mxCell>
                <mxCell id="47" value="" style="endArrow=classic;startArrow=classic;html=1;entryX=0.5;entryY=1;entryDx=0;entryDy=0;exitX=0.5;exitY=0;exitDx=0;exitDy=0;" parent="1" source="28" target="26" edge="1">
                    <mxGeometry width="50" height="50" relative="1" as="geometry">
                        <mxPoint x="512.573593128807" y="621.7157287525381" as="sourcePoint"/>
                        <mxPoint x="456.29999999999995" y="545.6499999999999" as="targetPoint"/>
                    </mxGeometry>
                </mxCell>
                <mxCell id="48" value="" style="endArrow=classic;startArrow=classic;html=1;entryX=1;entryY=1;entryDx=0;entryDy=0;exitX=0;exitY=0.5;exitDx=0;exitDy=0;" parent="1" source="29" target="25" edge="1">
                    <mxGeometry width="50" height="50" relative="1" as="geometry">
                        <mxPoint x="464.9999999999998" y="799.9999999999998" as="sourcePoint"/>
                        <mxPoint x="459.9999999999998" y="759.9999999999998" as="targetPoint"/>
                    </mxGeometry>
                </mxCell>
                <mxCell id="49" value="" style="endArrow=classic;html=1;entryX=1;entryY=0.5;entryDx=0;entryDy=0;exitX=0;exitY=0.5;exitDx=0;exitDy=0;" parent="1" source="12" target="13" edge="1">
                    <mxGeometry width="50" height="50" relative="1" as="geometry">
                        <mxPoint x="200" y="540" as="sourcePoint"/>
                        <mxPoint x="250" y="490" as="targetPoint"/>
                    </mxGeometry>
                </mxCell>
                <mxCell id="50" value="Information Flow" style="text;html=1;strokeColor=none;fillColor=none;align=center;verticalAlign=middle;whiteSpace=wrap;rounded=0;dashed=1;" parent="1" vertex="1">
                    <mxGeometry x="240" y="960" width="100" height="20" as="geometry"/>
                </mxCell>
                <mxCell id="52" value="Existing Page&lt;span style=&quot;color: rgba(0 , 0 , 0 , 0) ; font-family: monospace ; font-size: 0px&quot;&gt;%3CmxGraphModel%3E%3Croot%3E%3CmxCell%20id%3D%220%22%2F%3E%3CmxCell%20id%3D%221%22%20parent%3D%220%22%2F%3E%3CmxCell%20id%3D%222%22%20value%3D%22%22%20style%3D%22endArrow%3Dclassic%3BstartArrow%3Dclassic%3Bhtml%3D1%3BentryX%3D0.5%3BentryY%3D1%3BentryDx%3D0%3BentryDy%3D0%3BexitX%3D0.5%3BexitY%3D0%3BexitDx%3D0%3BexitDy%3D0%3B%22%20edge%3D%221%22%20parent%3D%221%22%3E%3CmxGeometry%20width%3D%2250%22%20height%3D%2250%22%20relative%3D%221%22%20as%3D%22geometry%22%3E%3CmxPoint%20x%3D%22454.9999999999998%22%20y%3D%22839.9999999999998%22%20as%3D%22sourcePoint%22%2F%3E%3CmxPoint%20x%3D%22449.9999999999998%22%20y%3D%22799.9999999999998%22%20as%3D%22targetPoint%22%2F%3E%3C%2FmxGeometry%3E%3C%2FmxCell%3E%3C%2Froot%3E%3C%2FmxGraphModel%3E&lt;/span&gt;" style="rounded=0;whiteSpace=wrap;html=1;" parent="1" vertex="1">
                    <mxGeometry x="55" y="960" width="70" height="40" as="geometry"/>
                </mxCell>
                <mxCell id="53" value="Page on Backlog" style="rounded=0;whiteSpace=wrap;html=1;dashed=1;" parent="1" vertex="1">
                    <mxGeometry x="150" y="960" width="70" height="40" as="geometry"/>
                </mxCell>
                <mxCell id="55" value="Existing Task&lt;span style=&quot;color: rgba(0 , 0 , 0 , 0) ; font-family: monospace ; font-size: 0px&quot;&gt;%3CmxGraphModel%3E%3Croot%3E%3CmxCell%20id%3D%220%22%2F%3E%3CmxCell%20id%3D%221%22%20parent%3D%220%22%2F%3E%3CmxCell%20id%3D%222%22%20value%3D%22Add%20User%22%20style%3D%22ellipse%3BwhiteSpace%3Dwrap%3Bhtml%3D1%3B%22%20vertex%3D%221%22%20parent%3D%221%22%3E%3CmxGeometry%20x%3D%22280%22%20y%3D%22650%22%20width%3D%22120%22%20height%3D%2280%22%20as%3D%22geometry%22%2F%3E%3C%2FmxCell%3E%3C%2Froot%3E%3C%2FmxGraphModel%3E&lt;/span&gt;" style="ellipse;whiteSpace=wrap;html=1;" parent="1" vertex="1">
                    <mxGeometry x="55" y="1020" width="70" height="50" as="geometry"/>
                </mxCell>
                <mxCell id="56" value="Task on Backlog" style="ellipse;whiteSpace=wrap;html=1;dashed=1;" parent="1" vertex="1">
                    <mxGeometry x="150" y="1020" width="70" height="50" as="geometry"/>
                </mxCell>
                <mxCell id="58" value="" style="endArrow=classic;html=1;" parent="1" edge="1">
                    <mxGeometry width="50" height="50" relative="1" as="geometry">
                        <mxPoint x="260" y="989.41" as="sourcePoint"/>
                        <mxPoint x="320" y="989.41" as="targetPoint"/>
                    </mxGeometry>
                </mxCell>
                <mxCell id="62" value="System Boundary" style="ellipse;whiteSpace=wrap;html=1;strokeColor=#B09500;fontColor=#ffffff;fillColor=none;dashed=1;dashPattern=1 2;strokeWidth=3;" parent="1" vertex="1">
                    <mxGeometry x="250.63" y="1020" width="78.75" height="50" as="geometry"/>
                </mxCell>
                <mxCell id="64" value="Kelly White's Personal Website IFD" style="text;html=1;strokeColor=none;fillColor=none;align=center;verticalAlign=middle;whiteSpace=wrap;rounded=0;dashed=1;dashPattern=1 2;fontStyle=1;fontSize=35;" parent="1" vertex="1">
                    <mxGeometry x="125" y="50" width="600" height="70" as="geometry"/>
                </mxCell>
                <mxCell id="66" value="Legend" style="text;html=1;strokeColor=none;fillColor=none;align=left;verticalAlign=middle;whiteSpace=wrap;rounded=0;dashed=1;dashPattern=1 2;fontStyle=1;fontSize=20;" parent="1" vertex="1">
                    <mxGeometry x="55" y="890" width="90" height="70" as="geometry"/>
                </mxCell>
                <mxCell id="69" value="" style="endArrow=classic;startArrow=classic;html=1;entryX=0.145;entryY=1;entryDx=0;entryDy=-4.35;entryPerimeter=0;exitX=1;exitY=0;exitDx=0;exitDy=0;" edge="1" parent="1" source="14" target="4">
                    <mxGeometry width="50" height="50" relative="1" as="geometry">
                        <mxPoint x="460" y="680" as="sourcePoint"/>
                        <mxPoint x="435" y="550" as="targetPoint"/>
                    </mxGeometry>
                </mxCell>
                <mxCell id="70" value="" style="endArrow=classic;startArrow=classic;html=1;entryX=0;entryY=0.5;entryDx=0;entryDy=0;exitX=1;exitY=0.5;exitDx=0;exitDy=0;" edge="1" parent="1" source="11" target="14">
                    <mxGeometry width="50" height="50" relative="1" as="geometry">
                        <mxPoint x="392.42640687119297" y="621.7157287525383" as="sourcePoint"/>
                        <mxPoint x="413.70000000000005" y="545.6499999999999" as="targetPoint"/>
                    </mxGeometry>
                </mxCell>
            </root>
        </mxGraphModel>
    </diagram>
</mxfile>